HIERARCHY
ROOT joint_Root
{
	OFFSET 0.0 0.0 0.0
	CHANNELS 6 Xposition Yposition Zposition Zrotation Xrotation Yrotation 
	JOINT Hips
	{
		OFFSET -17.1583 93.1646 452.98
		CHANNELS 6 Xposition Yposition Zposition Zrotation Xrotation Yrotation 
		JOINT Spine
		{
			OFFSET 15.7357 0.0 0.0
			CHANNELS 6 Xposition Yposition Zposition Zrotation Xrotation Yrotation 
			JOINT Chest
			{
				OFFSET 8.98455 -0.406207 0.0
				CHANNELS 6 Xposition Yposition Zposition Zrotation Xrotation Yrotation 
				JOINT Neck
				{
					OFFSET 16.3773 0.0 0.0
					CHANNELS 6 Xposition Yposition Zposition Zrotation Xrotation Yrotation 
					JOINT Head
					{
						OFFSET 6.45672 0.0 0.0
						CHANNELS 6 Xposition Yposition Zposition Zrotation Xrotation Yrotation 
						End Site
						{
							OFFSET 0.0 0.0 0.0
						}
					}
				}
				JOINT Shoulder_L
				{
					OFFSET 12.9942 -0.242716 4.98039
					CHANNELS 6 Xposition Yposition Zposition Zrotation Xrotation Yrotation 
					JOINT UpperArm_L
					{
						OFFSET 5.34809 0.0 0.0
						CHANNELS 6 Xposition Yposition Zposition Zrotation Xrotation Yrotation 
						JOINT LowerArm_L
						{
							OFFSET 24.3286 1.87007e-05 0.0
							CHANNELS 6 Xposition Yposition Zposition Zrotation Xrotation Yrotation 
							JOINT Hand_L
							{
								OFFSET 22.2916 0.0 0.0
								CHANNELS 6 Xposition Yposition Zposition Zrotation Xrotation Yrotation 
								End Site
								{
									OFFSET 0.0 0.0 0.0
								}
							}
						}
					}
				}
				JOINT Shoulder_R
				{
					OFFSET 12.9945 -0.242716 -4.98039
					CHANNELS 6 Xposition Yposition Zposition Zrotation Xrotation Yrotation 
					JOINT UpperArm_R
					{
						OFFSET -5.34813 0.0 0.0
						CHANNELS 6 Xposition Yposition Zposition Zrotation Xrotation Yrotation 
						JOINT LowerArm_R
						{
							OFFSET -24.3289 0.000322201 0.0
							CHANNELS 6 Xposition Yposition Zposition Zrotation Xrotation Yrotation 
							JOINT Hand_R
							{
								OFFSET -22.2915 -0.000108084 0.0
								CHANNELS 6 Xposition Yposition Zposition Zrotation Xrotation Yrotation 
								End Site
								{
									OFFSET 0.0 0.0 0.0
								}
							}
						}
					}
				}
			}
		}
		JOINT UpperLeg_L
		{
			OFFSET -2.19248 -6.46944 0.0
			CHANNELS 6 Xposition Yposition Zposition Zrotation Xrotation Yrotation 
			JOINT LowerLeg_L
			{
				OFFSET 39.0811 0.0 -1.23785e-05
				CHANNELS 6 Xposition Yposition Zposition Zrotation Xrotation Yrotation 
				JOINT Foot_L
				{
					OFFSET 40.9854 0.0 -1.26872e-05
					CHANNELS 6 Xposition Yposition Zposition Zrotation Xrotation Yrotation 
					JOINT Toes_L
					{
						OFFSET 11.7543 0.0 0.0
						CHANNELS 6 Xposition Yposition Zposition Zrotation Xrotation Yrotation 
						End Site
						{
							OFFSET 0.0 0.0 0.0
						}
					}
				}
			}
		}
		JOINT UpperLeg_R
		{
			OFFSET -2.19251 6.46944 0.0
			CHANNELS 6 Xposition Yposition Zposition Zrotation Xrotation Yrotation 
			JOINT LowerLeg_R
			{
				OFFSET -39.0811 -0.00228153 -0.0401928
				CHANNELS 6 Xposition Yposition Zposition Zrotation Xrotation Yrotation 
				JOINT Foot_R
				{
					OFFSET -40.9854 0.0 0.0
					CHANNELS 6 Xposition Yposition Zposition Zrotation Xrotation Yrotation 
					JOINT Toes_R
					{
						OFFSET -11.7543 0.0 0.0
						CHANNELS 6 Xposition Yposition Zposition Zrotation Xrotation Yrotation 
						End Site
						{
							OFFSET 0.0 0.0 0.0
						}
					}
				}
			}
		}
	}
}
MOTION
Frames:	9
Frame Time:	0.0333333
0.000000 0.000000 0.000000 0.000000 0.000000 -0.000000 -4.020160 91.917600 -1.341320 84.704800 0.400981 5.805760 15.735700 0.000005 -0.000001 78.850400 86.397200 -76.575200 8.984550 -0.406207 -0.000000 -0.661290 -1.560300 4.539470 16.377300 -0.000001 -0.000001 8.856540 3.013380 -3.687680 6.456720 -0.000001 -0.000000 -4.864700 3.110040 -3.460410 12.994200 -0.242716 4.980390 -93.193900 8.784370 -69.927700 5.348090 -0.000007 -0.000001 -73.080400 26.115900 0.761561 24.328600 0.000019 0.000005 11.081400 27.223000 -23.177700 22.291600 -0.000001 0.000005 -1.802520 4.978130 7.781060 12.994500 -0.242716 -4.980390 87.194800 7.137430 -68.477600 -5.348130 -0.000001 -0.000004 -70.014800 14.112200 -1.549960 -24.328900 0.000322 -0.000009 2.269540 5.402360 -22.837900 -22.291500 -0.000108 -0.000004 -0.418457 5.274910 0.764815 -2.192480 -6.469440 -0.000000 -172.937000 6.507010 -2.548530 39.081100 -0.000007 -0.000012 0.360906 -0.674815 28.139700 40.985400 -0.000006 -0.000013 -1.171890 2.516220 -75.928800 11.754300 -0.000000 0.000003 0.000346 0.161576 -10.023700 -2.192510 6.469440 -0.000001 -170.557000 8.871560 -175.600000 -39.081100 -0.002282 -0.040193 0.117424 -0.392477 16.209600 -40.985400 0.000008 0.000006 5.195740 2.883070 -71.197600 -11.754300 -0.000006 -0.000006 -0.010992 0.278577 -5.253450
0.000000 0.000000 0.000000 0.000000 0.000000 -0.000000 -4.007140 91.920900 -1.369910 84.692400 0.358403 5.775930 15.735700 0.000005 -0.000001 78.933900 86.394800 -76.659900 8.984550 -0.406207 -0.000000 -0.654840 -1.550690 4.537160 16.377300 -0.000001 -0.000001 8.940160 2.956700 -3.564860 6.456720 -0.000001 -0.000000 -4.884750 3.085870 -3.344250 12.994200 -0.242716 4.980390 -93.202300 8.786690 -69.884200 5.348090 -0.000007 -0.000001 -72.976400 26.028300 0.692707 24.328600 0.000019 0.000005 11.065800 27.211800 -23.155600 22.291600 -0.000001 0.000005 -1.843190 4.977930 7.785220 12.994500 -0.242716 -4.980390 87.177500 7.153820 -68.402100 -5.348130 -0.000001 -0.000004 -69.714800 13.804100 -1.813010 -24.328900 0.000322 -0.000009 2.284940 5.340320 -23.215100 -22.291500 -0.000108 -0.000004 -0.482251 5.273090 0.814634 -2.192480 -6.469440 -0.000000 -172.933000 6.476160 -2.601400 39.081100 -0.000007 -0.000012 0.362166 -0.676962 28.147000 40.985400 -0.000006 -0.000013 -1.169250 2.482820 -75.873300 11.754300 -0.000000 0.000003 0.000552 0.157747 -10.179100 -2.192510 6.469440 -0.000001 -170.556000 8.940990 -175.635000 -39.081100 -0.002282 -0.040193 0.118254 -0.396121 16.179100 -40.985400 0.000008 0.000006 5.321300 2.956060 -71.202300 -11.754300 -0.000006 -0.000006 -0.010884 0.277799 -5.285310
0.000000 0.000000 0.000000 0.000000 0.000000 -0.000000 -3.984450 91.926000 -1.390620 84.678800 0.356838 5.761820 15.735700 0.000005 -0.000001 78.672900 86.394600 -76.401000 8.984550 -0.406207 -0.000000 -0.660157 -1.582950 4.532840 16.377300 -0.000001 -0.000001 9.036790 2.930900 -3.465570 6.456720 -0.000001 -0.000000 -4.858800 3.030790 -3.127320 12.994200 -0.242716 4.980390 -93.188300 8.737360 -69.862000 5.348090 -0.000007 -0.000001 -72.955900 25.896700 0.637568 24.328600 0.000019 0.000005 11.112100 27.326800 -23.163600 22.291600 -0.000001 0.000005 -1.720990 4.979090 7.760880 12.994500 -0.242716 -4.980390 87.163200 7.172590 -68.353500 -5.348130 -0.000001 -0.000004 -69.327500 13.505300 -2.254370 -24.328900 0.000322 -0.000009 2.194370 5.081670 -23.403400 -22.291500 -0.000108 -0.000004 -0.373228 5.267480 0.966294 -2.192480 -6.469440 -0.000000 -172.943000 6.515850 -2.628810 39.081100 -0.000007 -0.000012 0.362632 -0.677633 28.154100 40.985400 -0.000006 -0.000013 -1.168000 2.430890 -75.910100 11.754300 -0.000000 0.000003 0.000381 0.160940 -10.049500 -2.192510 6.469440 -0.000001 -170.590000 9.070950 -175.666000 -39.081100 -0.002282 -0.040193 0.116496 -0.389864 16.186900 -40.985400 0.000008 0.000006 5.240600 3.090710 -71.153500 -11.754300 -0.000006 -0.000006 -0.010587 0.275639 -5.373690
0.000000 0.000000 0.000000 0.000000 0.000000 -0.000000 -3.968420 91.932900 -1.413930 84.666500 0.321076 5.739280 15.735700 0.000005 -0.000001 78.754300 86.399300 -76.486600 8.984550 -0.406207 -0.000000 -0.667719 -1.570910 4.524340 16.377300 -0.000001 -0.000001 9.166130 2.872720 -3.355700 6.456720 -0.000001 -0.000000 -4.907740 2.933860 -2.917210 12.994200 -0.242716 4.980390 -93.186100 8.726820 -69.852900 5.348090 -0.000007 -0.000001 -72.850900 25.815500 0.532708 24.328600 0.000019 0.000005 11.152600 27.344200 -23.228800 22.291600 -0.000001 0.000005 -1.832350 4.977840 7.787300 12.994500 -0.242716 -4.980390 87.188900 7.094360 -68.318700 -5.348130 -0.000001 -0.000004 -69.129700 12.665800 -2.680300 -24.328900 0.000322 -0.000009 2.246860 5.103000 -23.812800 -22.291500 -0.000108 -0.000004 -0.302939 5.251320 1.397750 -2.192480 -6.469440 -0.000000 -172.948000 6.531970 -2.653300 39.081100 -0.000007 -0.000012 0.362625 -0.678221 28.132900 40.985400 -0.000006 -0.000013 -1.166470 2.381350 -75.843600 11.754300 -0.000000 0.000003 0.000600 0.156829 -10.216400 -2.192510 6.469440 -0.000001 -170.586000 9.055960 -175.679000 -39.081100 -0.002282 -0.040193 0.116293 -0.390283 16.142900 -40.985400 0.000008 0.000006 5.270140 3.127410 -71.124800 -11.754300 -0.000006 -0.000006 -0.010921 0.278061 -5.274570
0.000000 0.000000 0.000000 0.000000 0.000000 -0.000000 -3.943130 91.941700 -1.454330 84.659300 0.250922 5.703620 15.735700 0.000005 -0.000001 79.373700 86.426500 -77.120100 8.984550 -0.406207 -0.000000 -0.708463 -1.484200 4.496170 16.377300 -0.000001 -0.000001 9.216780 2.801450 -3.225450 6.456720 -0.000001 -0.000000 -4.837300 2.803220 -2.679990 12.994200 -0.242716 4.980390 -93.195800 8.743480 -69.831500 5.348090 -0.000007 -0.000001 -72.681900 25.860000 0.415074 24.328600 0.000019 0.000005 11.071500 27.099600 -23.245600 22.291600 -0.000001 0.000005 -1.765470 4.976590 7.813320 12.994500 -0.242716 -4.980390 87.203900 7.042640 -68.280800 -5.348130 -0.000001 -0.000004 -68.880900 11.708500 -2.761880 -24.328900 0.000322 -0.000009 2.406920 5.117990 -25.238200 -22.291500 -0.000108 -0.000004 -0.397717 5.225310 2.077070 -2.192480 -6.469440 -0.000000 -172.957000 6.528190 -2.699770 39.081100 -0.000007 -0.000012 0.361210 -0.675900 28.121500 40.985400 -0.000006 -0.000013 -1.172480 2.311270 -75.838900 11.754300 -0.000000 0.000003 0.000420 0.160220 -10.078700 -2.192510 6.469440 -0.000001 -170.586000 9.016270 -175.731000 -39.081100 -0.002282 -0.040193 0.116093 -0.389779 16.135600 -40.985400 0.000008 0.000006 5.235400 3.166680 -71.096200 -11.754300 -0.000006 -0.000006 -0.010473 0.274804 -5.407860
0.000000 0.000000 0.000000 0.000000 0.000000 -0.000000 -3.920980 91.947500 -1.484780 84.632900 0.255257 5.706270 15.735700 0.000005 -0.000001 79.665000 86.416400 -77.414500 8.984550 -0.406207 -0.000000 -0.682600 -1.451370 4.490320 16.377300 -0.000001 -0.000001 9.226390 2.736530 -3.100080 6.456720 -0.000001 -0.000000 -4.933700 2.705870 -2.500410 12.994200 -0.242716 4.980390 -93.222300 8.785630 -69.766200 5.348090 -0.000007 -0.000001 -72.513200 25.673700 0.190979 24.328600 0.000019 0.000005 11.033600 27.029000 -23.223000 22.291600 -0.000001 0.000005 -1.714740 4.979140 7.759820 12.994500 -0.242716 -4.980390 87.210000 7.035170 -68.302900 -5.348130 -0.000001 -0.000004 -68.622000 10.105300 -2.495850 -24.328900 0.000322 -0.000009 3.010430 5.647940 -28.121900 -22.291500 -0.000108 -0.000004 -1.016910 5.186930 3.047190 -2.192480 -6.469440 -0.000000 -172.954000 6.547460 -2.723310 39.081100 -0.000007 -0.000012 0.362897 -0.678738 28.132700 40.985400 -0.000006 -0.000013 -1.165690 2.271860 -75.834900 11.754300 -0.000000 0.000003 0.000445 0.159762 -10.097300 -2.192510 6.469440 -0.000001 -170.587000 9.095630 -175.743000 -39.081100 -0.002282 -0.040193 0.114938 -0.386408 16.110900 -40.985400 0.000008 0.000006 5.220820 3.211670 -71.057800 -11.754300 -0.000006 -0.000006 -0.010774 0.276999 -5.318050
0.000000 0.000000 0.000000 0.000000 0.000000 -0.000000 -3.899420 91.956100 -1.556610 84.592300 0.239845 5.681490 15.735700 0.000005 -0.000001 79.976700 86.402700 -77.716000 8.984550 -0.406207 -0.000000 -0.649217 -1.417850 4.511240 16.377300 -0.000001 -0.000001 9.105580 2.680640 -2.978790 6.456720 -0.000001 -0.000000 -5.011920 2.627600 -2.313020 12.994200 -0.242716 4.980390 -93.254200 8.830930 -69.677500 5.348090 -0.000007 -0.000001 -72.366800 25.519200 -0.013356 24.328600 0.000019 0.000005 11.121900 27.157600 -23.301600 22.291600 -0.000001 0.000005 -1.559360 4.981280 7.715100 12.994500 -0.242716 -4.980390 87.226300 6.997220 -68.312700 -5.348130 -0.000001 -0.000004 -68.488000 7.734900 -1.852630 -24.328900 0.000322 -0.000009 3.997200 6.261960 -32.649900 -22.291500 -0.000108 -0.000004 -1.616190 5.139490 4.192770 -2.192480 -6.469440 -0.000000 -172.911000 6.506120 -2.805220 39.081100 -0.000007 -0.000012 0.362549 -0.677629 28.148800 40.985400 -0.000006 -0.000013 -1.148960 2.302560 -75.769000 11.754300 -0.000000 0.000003 0.000490 0.158920 -10.131500 -2.192510 6.469440 -0.000001 -170.539000 8.987640 -175.804000 -39.081100 -0.002282 -0.040193 0.114379 -0.385169 16.083200 -40.985400 0.000008 0.000006 5.252360 3.164420 -71.018500 -11.754300 -0.000006 -0.000006 -0.011042 0.278934 -5.238840
0.000000 0.000000 0.000000 0.000000 0.000000 -0.000000 -3.872770 91.967200 -1.608670 84.593400 0.291946 5.649110 15.735700 0.000005 -0.000001 80.019900 86.398800 -77.755600 8.984550 -0.406207 -0.000000 -0.640660 -1.413970 4.518760 16.377300 -0.000001 -0.000001 8.939760 2.642050 -2.700440 6.456720 -0.000001 -0.000000 -5.053020 2.615370 -2.137140 12.994200 -0.242716 4.980390 -93.264700 8.893810 -69.748300 5.348090 -0.000007 -0.000001 -72.296000 25.329400 -0.034263 24.328600 0.000019 0.000005 11.115600 26.871100 -23.494300 22.291600 -0.000001 0.000005 -1.623460 4.977770 7.788720 12.994500 -0.242716 -4.980390 87.286600 6.804760 -68.198900 -5.348130 -0.000001 -0.000004 -68.540400 5.313910 -1.158830 -24.328900 0.000322 -0.000009 4.794130 6.168500 -37.978000 -22.291500 -0.000108 -0.000004 -1.318740 5.113920 4.792720 -2.192480 -6.469440 -0.000000 -172.914000 6.495610 -2.883370 39.081100 -0.000007 -0.000012 0.358874 -0.671258 28.131100 40.985400 -0.000006 -0.000013 -1.121850 2.352980 -75.719100 11.754300 -0.000000 0.000003 0.000491 0.158895 -10.132500 -2.192510 6.469440 -0.000001 -170.564000 9.031650 -175.902000 -39.081100 -0.002282 -0.040193 0.112387 -0.377161 16.127700 -40.985400 0.000008 0.000006 5.072890 3.171020 -70.976200 -11.754300 -0.000006 -0.000006 -0.011182 0.279932 -5.198000
0.000000 0.000000 0.000000 0.000000 0.000000 -0.000000 -3.833610 91.983900 -1.695800 84.582400 0.322465 5.573180 15.735700 0.000005 -0.000001 79.418400 86.394800 -77.148800 8.984550 -0.406207 -0.000000 -0.644601 -1.490290 4.528670 16.377300 -0.000001 -0.000001 8.677010 2.634460 -2.180680 6.456720 -0.000001 -0.000000 -5.110610 2.732990 -1.735820 12.994200 -0.242716 4.980390 -93.283100 8.963210 -69.787100 5.348090 -0.000007 -0.000001 -72.231700 25.374600 0.026536 24.328600 0.000019 0.000005 11.099400 26.540200 -23.704100 22.291600 -0.000001 0.000005 -1.677460 4.980370 7.734060 12.994500 -0.242716 -4.980390 87.363500 6.588190 -68.131900 -5.348130 -0.000001 -0.000004 -68.578300 2.921840 -0.714696 -24.328900 0.000322 -0.000009 5.473660 5.774530 -43.608100 -22.291500 -0.000108 -0.000004 -0.435428 5.117460 4.709050 -2.192480 -6.469440 -0.000000 -172.906000 6.424360 -3.026410 39.081100 -0.000007 -0.000012 0.362263 -0.677944 28.118900 40.985400 -0.000006 -0.000013 -1.091440 2.402580 -75.677100 11.754300 -0.000000 0.000003 0.000414 0.160339 -10.073900 -2.192510 6.469440 -0.000001 -170.569000 9.011510 -176.039000 -39.081100 -0.002282 -0.040193 0.110091 -0.369427 16.119100 -40.985400 0.000008 0.000006 5.013020 3.182070 -70.917200 -11.754300 -0.000006 -0.000006 -0.011028 0.278831 -5.243050
